<svg xmlns="http://www.w3.org/2000/svg" xmlns:xlink="http://www.w3.org/1999/xlink" viewBox="0 0 232.82 210"><defs><style>.cls-1,.cls-4,.cls-6{fill:none;}.cls-1,.cls-3,.cls-4,.cls-5,.cls-6{stroke:#2b79f1;stroke-miterlimit:10;stroke-width:4px;}.cls-2,.cls-5{opacity:0.1;}.cls-2{fill:url(#New_Gradient_Swatch_2);}.cls-3{fill:#fff;}.cls-4{stroke-dasharray:6 6;}.cls-5{fill:#2b79f1;}.cls-6{stroke-dasharray:6.06 6.06;}</style><radialGradient id="New_Gradient_Swatch_2" cx="100.22" cy="134.44" r="79.34" gradientUnits="userSpaceOnUse"><stop offset="0" stop-color="#cce0f4"/><stop offset="0.09" stop-color="#c3dcf2"/><stop offset="0.25" stop-color="#a9d2ee"/><stop offset="0.45" stop-color="#80c2e7"/><stop offset="0.68" stop-color="#47acde"/><stop offset="0.82" stop-color="#1e9cd7"/><stop offset="1" stop-color="#0075be"/></radialGradient></defs><title>3scale</title><g id="Layer_2" data-name="Layer 2"><g id="Layer_1-2" data-name="Layer 1"><polygon class="cls-1" points="129.53 52.68 44.72 52.68 2.31 126.14 44.72 199.59 129.53 199.59 171.94 126.14 129.53 52.68"/><polygon class="cls-2" points="142.62 60.99 57.81 60.99 15.4 134.44 57.81 207.89 142.62 207.89 185.03 134.44 142.62 60.99"/><line class="cls-1" x1="93.83" y1="132.67" x2="93.83" y2="46.67"/><line class="cls-1" x1="94.5" y1="132.67" x2="180.5" y2="132.67"/><line class="cls-1" x1="93.61" y1="133.24" x2="143.83" y2="176.67"/><line class="cls-1" x1="93.7" y1="132.54" x2="33.83" y2="194.67"/><polygon class="cls-3" points="98.77 97.67 63.5 109.92 56.47 146.58 84.72 171 119.99 158.75 127.01 122.08 98.77 97.67"/><circle class="cls-1" cx="94.17" cy="38.33" r="7.67"/><circle class="cls-1" cx="188.17" cy="133" r="7.67"/><circle class="cls-1" cx="149.5" cy="181.67" r="7.67"/><circle class="cls-1" cx="28.83" cy="200.33" r="7.67"/><circle class="cls-4" cx="94.5" cy="38.67" r="28.67" transform="translate(31.56 119.06) rotate(-74.2)"/><circle class="cls-5" cx="97.83" cy="30.67" r="28.67"/><circle class="cls-5" cx="196.1" cy="133.28" r="34.72"/><circle class="cls-6" cx="191.22" cy="130.72" r="34.72"/></g></g></svg>