<svg xmlns="http://www.w3.org/2000/svg" xmlns:xlink="http://www.w3.org/1999/xlink" viewBox="0 0 207.76 183.11"><defs><style>.cls-1{opacity:0.1;fill:url(#New_Gradient_Swatch_1);}.cls-2,.cls-3{fill:none;stroke:#2b79f1;stroke-miterlimit:10;stroke-width:4px;}.cls-2{stroke-dasharray:6;}.cls-4{fill:#fff;}.cls-5,.cls-6{opacity:0.15;}.cls-5{fill:url(#New_Gradient_Swatch_1-2);}.cls-6{fill:url(#New_Gradient_Swatch_1-3);}</style><radialGradient id="New_Gradient_Swatch_1" cx="126.43" cy="116.81" r="70.89" gradientUnits="userSpaceOnUse"><stop offset="0" stop-color="#cce0f4"/><stop offset="0.06" stop-color="#c3dcf2"/><stop offset="0.17" stop-color="#a9d2ee"/><stop offset="0.31" stop-color="#80c2e7"/><stop offset="0.46" stop-color="#47acde"/><stop offset="0.57" stop-color="#1e9cd7"/><stop offset="0.87" stop-color="#0075be"/><stop offset="0.99" stop-color="#005b97"/></radialGradient><radialGradient id="New_Gradient_Swatch_1-2" cx="-2453.46" cy="-1673.83" r="27.16" gradientTransform="translate(-2425.35 -1627.47) rotate(180)" xlink:href="#New_Gradient_Swatch_1"/><radialGradient id="New_Gradient_Swatch_1-3" cx="-297.7" cy="-1673.83" r="27.16" gradientTransform="matrix(1, 0, 0, -1, 392.92, -1627.47)" xlink:href="#New_Gradient_Swatch_1"/></defs><title>che</title><g id="Layer_2" data-name="Layer 2"><g id="Layer_1-2" data-name="Layer 1"><rect class="cls-1" x="45.1" y="58.19" width="162.66" height="117.24"/><rect class="cls-2" x="2" y="2" width="162.66" height="117.24"/><rect class="cls-3" x="24.18" y="63.87" width="162.66" height="117.24"/><polygon class="cls-4" points="52.86 70.96 28.42 46.53 52.86 22.1 44.71 13.95 12.13 46.53 16.66 51.05 20.28 54.67 44.71 79.11 52.86 70.96"/><polygon class="cls-3" points="53.77 70.96 29.33 46.53 53.77 22.1 45.62 13.95 13.04 46.53 17.57 51.05 21.19 54.67 45.62 79.11 53.77 70.96"/><polygon class="cls-5" points="48.48 70.79 24.05 46.36 48.48 21.93 40.33 13.79 7.76 46.36 12.28 50.89 15.9 54.51 40.33 78.94 48.48 70.79"/><polygon class="cls-4" points="69.41 70.96 93.84 46.53 69.41 22.1 77.55 13.95 110.13 46.53 105.6 51.05 101.98 54.67 77.55 79.11 69.41 70.96"/><polygon class="cls-3" points="69.57 70.96 94.01 46.53 69.57 22.1 77.72 13.95 110.3 46.53 105.77 51.05 102.15 54.67 77.72 79.11 69.57 70.96"/><polygon class="cls-6" points="74.86 70.79 99.29 46.36 74.86 21.93 83 13.79 115.58 46.36 111.06 50.89 107.44 54.51 83 78.94 74.86 70.79"/></g></g></svg>