<svg xmlns="http://www.w3.org/2000/svg" xmlns:xlink="http://www.w3.org/1999/xlink" viewBox="0 0 229.41 200.14"><defs><style>.cls-1{opacity:0.1;fill:url(#New_Gradient_Swatch_2);}.cls-2,.cls-4{fill:none;stroke:#2b79f1;stroke-miterlimit:10;stroke-width:4px;}.cls-3{opacity:0.15;fill:url(#New_Gradient_Swatch_2-2);}.cls-4{stroke-dasharray:6.13 6.13;}</style><radialGradient id="New_Gradient_Swatch_2" cx="-3397.64" cy="1804.72" r="95.24" gradientTransform="translate(1214.14 -3566.26) rotate(-45)" gradientUnits="userSpaceOnUse"><stop offset="0" stop-color="#cce0f4"/><stop offset="0.09" stop-color="#c3dcf2"/><stop offset="0.25" stop-color="#a9d2ee"/><stop offset="0.45" stop-color="#80c2e7"/><stop offset="0.68" stop-color="#47acde"/><stop offset="0.82" stop-color="#1e9cd7"/><stop offset="1" stop-color="#0075be"/></radialGradient><radialGradient id="New_Gradient_Swatch_2-2" cx="-2660.29" cy="-267.04" r="39.46" gradientTransform="translate(-649.17 -2445.27) rotate(-111.6)" xlink:href="#New_Gradient_Swatch_2"/></defs><title>fuse</title><g id="Layer_2" data-name="Layer 2"><g id="Layer_1-2" data-name="Layer 1"><rect class="cls-1" x="20.43" y="45.02" width="134.69" height="134.69" transform="translate(126.67 249.54) rotate(-157.83)"/><rect class="cls-2" x="156.77" y="39.98" width="60.81" height="60.81" transform="translate(333.96 206.18) rotate(-157.83)"/><rect class="cls-2" x="129.42" y="107.1" width="60.81" height="60.81" transform="translate(255.96 325.15) rotate(-157.83)"/><rect class="cls-2" x="89.3" y="11.83" width="60.81" height="60.81" transform="translate(214.64 126.51) rotate(-157.83)"/><rect class="cls-2" x="45.07" y="87.1" width="60.81" height="60.81" transform="translate(101.04 254.79) rotate(-157.83)"/><rect class="cls-3" x="51.65" y="96.05" width="60.81" height="60.81" transform="translate(110.33 274.51) rotate(-157.83)"/><polyline class="cls-2" points="60.95 22.63 62.08 19.85 64.86 20.98"/><line class="cls-4" x1="70.53" y1="23.29" x2="181.2" y2="68.38"/><polyline class="cls-2" points="184.03 69.53 186.81 70.67 185.68 73.44"/><line class="cls-4" x1="183.37" y1="79.12" x2="138.28" y2="189.78"/><polyline class="cls-2" points="137.13 192.62 136 195.4 133.22 194.27"/><line class="cls-4" x1="127.54" y1="191.96" x2="16.88" y2="146.87"/><polyline class="cls-2" points="14.04 145.72 11.26 144.58 12.39 141.81"/><line class="cls-4" x1="14.7" y1="136.13" x2="59.79" y2="25.46"/></g></g></svg>