<svg xmlns="http://www.w3.org/2000/svg" xmlns:xlink="http://www.w3.org/1999/xlink" viewBox="0 0 172 200.38"><defs><style>.cls-1,.cls-2,.cls-3,.cls-5{fill:none;stroke-miterlimit:10;stroke-width:4px;}.cls-1,.cls-2,.cls-3{stroke:#176df1;}.cls-2{stroke-dasharray:5.98 5.98;}.cls-3{stroke-dasharray:6.38 6.38;}.cls-4{opacity:0.1;fill:url(#radial-gradient);}.cls-5{stroke:#2b79f1;}.cls-6,.cls-7{opacity:0.15;}.cls-6{fill:url(#New_Gradient_Swatch_1);}.cls-7{fill:url(#New_Gradient_Swatch_1-2);}</style><radialGradient id="radial-gradient" cx="94.78" cy="102.93" r="87.92" gradientTransform="translate(0 -205.86) scale(1 3)" gradientUnits="userSpaceOnUse"><stop offset="0" stop-color="#cce0f4"/><stop offset="0.06" stop-color="#c3dcf2"/><stop offset="0.17" stop-color="#a9d2ee"/><stop offset="0.31" stop-color="#80c2e7"/><stop offset="0.46" stop-color="#47acde"/><stop offset="0.57" stop-color="#1e9cd7"/><stop offset="0.87" stop-color="#0075be"/><stop offset="0.99" stop-color="#005b97"/></radialGradient><radialGradient id="New_Gradient_Swatch_1" cx="115.84" cy="100.05" r="34.2" gradientTransform="matrix(1, 0, 0, 1, 0, 0)" xlink:href="#radial-gradient"/><radialGradient id="New_Gradient_Swatch_1-2" cx="-203.12" cy="-1714.77" r="34.2" gradientTransform="translate(-163.2 -1611.51) rotate(180)" xlink:href="#radial-gradient"/></defs><title>identity</title><g id="Layer_2" data-name="Layer 2"><g id="Layer_1-2" data-name="Layer 1"><path class="cls-1" d="M153.84,44.94l2.6,1.49c0,1,0,2,0,3"/><path class="cls-2" d="M156.32,55.41c-2.15,74.43-31.15,116.93-71.79,139"/><path class="cls-1" d="M81.9,195.85c-.89.46-1.78.91-2.68,1.35-.9-.44-1.79-.89-2.68-1.35"/><path class="cls-2" d="M71.3,193C31.5,170.19,3.47,127.08,2.06,52.42"/><path class="cls-1" d="M2,49.43c0-1,0-2,0-3l2.6-1.49"/><line class="cls-3" x1="10.14" y1="41.78" x2="73.85" y2="5.37"/><polyline class="cls-1" points="76.62 3.79 79.22 2.3 81.83 3.79"/><line class="cls-3" x1="87.37" y1="6.96" x2="151.07" y2="43.36"/><path class="cls-4" d="M172,49.61c0,83.34-32.18,128.7-77.22,150.77C49.73,178.31,17.56,133,17.56,49.61L94.78,5.49Z"/><polygon class="cls-5" points="86.98 72.51 117.74 103.27 86.98 134.03 97.23 144.29 138.25 103.27 132.55 97.57 128 93.02 97.23 62.25 86.98 72.51"/><polygon class="cls-6" points="90.2 69.28 120.97 100.05 90.2 130.81 100.45 141.07 141.47 100.05 135.78 94.35 131.22 89.79 100.45 59.03 90.2 69.28"/><polygon class="cls-5" points="72.22 134.23 41.45 103.47 72.22 72.7 61.96 62.45 20.95 103.47 26.64 109.17 31.2 113.72 61.96 144.49 72.22 134.23"/><polygon class="cls-7" points="65.56 134.02 34.8 103.26 65.56 72.49 55.31 62.24 14.29 103.26 19.98 108.95 24.54 113.51 55.31 144.28 65.56 134.02"/></g></g></svg>