<svg xmlns="http://www.w3.org/2000/svg" xmlns:xlink="http://www.w3.org/1999/xlink" viewBox="0 0 197 211.89"><defs><style>.cls-1{opacity:0.08;fill:url(#New_Gradient_Swatch_1);}.cls-2,.cls-6{fill:none;stroke:#2b79f1;stroke-miterlimit:10;stroke-width:4px;}.cls-3{opacity:0.1;}.cls-4{fill:url(#New_Gradient_Swatch_1-2);}.cls-5{fill:url(#New_Gradient_Swatch_1-3);}.cls-6{stroke-dasharray:6;}</style><radialGradient id="New_Gradient_Swatch_1" cx="89.23" cy="103.27" r="89.23" gradientUnits="userSpaceOnUse"><stop offset="0" stop-color="#cce0f4"/><stop offset="0.06" stop-color="#c3dcf2"/><stop offset="0.17" stop-color="#a9d2ee"/><stop offset="0.31" stop-color="#80c2e7"/><stop offset="0.46" stop-color="#47acde"/><stop offset="0.57" stop-color="#1e9cd7"/><stop offset="0.87" stop-color="#0075be"/><stop offset="0.99" stop-color="#005b97"/></radialGradient><radialGradient id="New_Gradient_Swatch_1-2" cx="248.34" cy="65.08" r="5.68" gradientTransform="matrix(0.96, 0.28, -0.28, 0.96, -184.09, -26.39)" xlink:href="#New_Gradient_Swatch_1"/><radialGradient id="New_Gradient_Swatch_1-3" cx="302.41" cy="55.31" r="61.55" gradientTransform="matrix(0.96, 0.28, -0.28, 0.96, -184.09, -26.39)" xlink:href="#New_Gradient_Swatch_1"/></defs><title>openshift</title><g id="Layer_2" data-name="Layer 2"><g id="Layer_1-2" data-name="Layer 1"><circle class="cls-1" cx="89.23" cy="103.27" r="89.23"/><path class="cls-2" d="M121.74,163.61,135.91,156l-6.58-15.63a46,46,0,0,0,9.41-11.43l16.74,4.79,5.14-15.25-15.92-7.35a45.91,45.91,0,0,0-1.51-18.44l13.25-8.92-7.62-14.17-14.75,6.12a46,46,0,0,0-14.55-11.42l3-16.73-15.6-4-5.5,15.83A46.11,46.11,0,0,0,86.48,61"/><path class="cls-2" d="M76.36,47.05,62.09,54.48,68.46,70.2A46.15,46.15,0,0,0,58.9,81.51l-16.67-5L36.89,91.66,52.7,99.23A46.27,46.27,0,0,0,54,117.69L40.6,126.44,48,140.71l14.83-5.93a46.07,46.07,0,0,0,14.4,11.62l-3.19,16.68,15.54,4.16,5.72-15.75a46,46,0,0,0,14.07-1.18"/><path class="cls-2" d="M84.23,77a32,32,0,1,0,29.53,56.73l-.28.1A32,32,0,1,0,83.19,77.48"/><g class="cls-3"><polygon class="cls-4" points="43.41 108.89 33.98 104.9 28.55 102.75 43.41 108.89"/><path class="cls-5" d="M132.06,130.3l16.66,3.33L153,118.12l-15.77-5.4a39.64,39.64,0,0,0-1.82-13.62l15-8.76L143,76.08l-16.33,6.4A46,46,0,0,0,112.34,70.8l2.73-15.73L99.56,50.76,93.78,65.65a45.86,45.86,0,0,0-18.32,2.59l-10-13.72L51.79,63.05,59.41,78a46.29,46.29,0,0,0-8.75,11.09l-.8,1.44L33.45,87.3,28.7,102.67,34,104.9,44.32,109a45.89,45.89,0,0,0,1.54,14.73l-15.15,8.56L38,146.67l16.4-6.19a46,46,0,0,0,14.2,11.86L65.64,168l15.45,4.51,6-14.81a46.17,46.17,0,0,0,18.35-2.36l9.84,13.84L129,160.88l-7.43-15C129.33,139.74,132.06,130.3,132.06,130.3ZM81.58,142.53a32.18,32.18,0,1,1,39.92-21.85A32.18,32.18,0,0,1,81.58,142.53Z"/></g><path class="cls-6" d="M122.11,13.53a94.82,94.82,0,0,1-5.2,185.58"/><polyline class="cls-2" points="128.59 210.16 111.88 200.64 121.23 183.16"/><path class="cls-6" d="M83.6,198.36A94.82,94.82,0,0,1,88.79,12.78"/><polyline class="cls-2" points="77.12 1.74 93.83 11.25 84.48 28.73"/></g></g></svg>