<svg xmlns="http://www.w3.org/2000/svg" xmlns:xlink="http://www.w3.org/1999/xlink" viewBox="0 0 218.13 212.59"><defs><style>.cls-1,.cls-2,.cls-4,.cls-5{fill:none;stroke-miterlimit:10;stroke-width:4px;}.cls-1,.cls-2{stroke:#2b79f1;}.cls-1{stroke-dasharray:6;}.cls-3,.cls-7{opacity:0.1;}.cls-3{fill:url(#New_Gradient_Swatch_1);}.cls-4,.cls-5{stroke:#176df1;}.cls-4{stroke-linecap:square;}.cls-6{fill:#fff;}.cls-8{fill:url(#New_Gradient_Swatch_1-2);}.cls-9{fill:url(#New_Gradient_Swatch_1-3);}</style><radialGradient id="New_Gradient_Swatch_1" cx="97.65" cy="128.29" r="77.74" gradientUnits="userSpaceOnUse"><stop offset="0" stop-color="#cce0f4"/><stop offset="0.06" stop-color="#c3dcf2"/><stop offset="0.17" stop-color="#a9d2ee"/><stop offset="0.31" stop-color="#80c2e7"/><stop offset="0.46" stop-color="#47acde"/><stop offset="0.57" stop-color="#1e9cd7"/><stop offset="0.87" stop-color="#0075be"/><stop offset="0.99" stop-color="#005b97"/></radialGradient><radialGradient id="New_Gradient_Swatch_1-2" cx="305.63" cy="295.08" r="4.95" gradientTransform="matrix(0.96, 0.28, -0.28, 0.96, -146.27, -282.41)" xlink:href="#New_Gradient_Swatch_1"/><radialGradient id="New_Gradient_Swatch_1-3" cx="352.68" cy="286.58" r="53.56" gradientTransform="matrix(0.96, 0.28, -0.28, 0.96, -146.27, -282.41)" xlink:href="#New_Gradient_Swatch_1"/></defs><title>versions</title><g id="Layer_2" data-name="Layer 2"><g id="Layer_1-2" data-name="Layer 1"><path class="cls-1" d="M28.11,87.89A85.9,85.9,0,0,1,199,75.29"/><polyline class="cls-2" points="209.3 65.02 200.23 79.9 184.65 70.96"/><polyline class="cls-3" points="0 128.28 97.33 77.8 195.31 128.29 195.31 128.29 97.98 178.78 0 128.29"/><polyline class="cls-4" points="20.83 159.85 118.8 210.34 216.13 159.85 216.13 120.39 118.17 171.21 20.2 120.71 20.2 120.71 117.53 70.22"/><line class="cls-5" x1="118.94" y1="170.58" x2="118.94" y2="209.71"/><circle class="cls-6" cx="115.47" cy="87.58" r="59.64"/><path class="cls-2" d="M138.8,136.92l12.34-6.63-5.73-13.61a39.82,39.82,0,0,0,8.19-9.94l14.56,4.17,4.47-13.27-13.85-6.4a40,40,0,0,0-1.31-16L169,67.43,162.37,55.1l-12.84,5.33a40,40,0,0,0-12.66-9.94l2.58-14.56-13.58-3.44-4.78,13.78a40.06,40.06,0,0,0-13,1.38"/><path class="cls-2" d="M99.32,35.49,86.9,42l5.54,13.68a40.12,40.12,0,0,0-8.32,9.83l-14.5-4.36L65,74.31,78.73,80.9A40,40,0,0,0,79.83,97L68.2,104.57,74.66,117l12.91-5.16a40,40,0,0,0,12.53,10.11l-2.78,14.52,13.53,3.62,5-13.71a39.94,39.94,0,0,0,12.24-1"/><path class="cls-2" d="M106.16,61.52a27.83,27.83,0,0,0,25.7,49.37l-.25.09a27.82,27.82,0,1,0-26.35-49"/><g class="cls-7"><polygon class="cls-8" points="70.64 89.3 62.43 85.83 57.71 83.95 70.64 89.3"/><path class="cls-9" d="M147.79,107.93l14.49,2.9L166,97.33l-13.73-4.7a34.65,34.65,0,0,0-1.58-11.85l13.09-7.62-6.48-12.41-14.21,5.57a40,40,0,0,0-12.48-10.16L133,42.46l-13.49-3.74-5,13a40.1,40.1,0,0,0-15.94,2.26L89.81,42,77.93,49.41l6.63,13A40.4,40.4,0,0,0,77,72.05l-.69,1.25L62,70.52,57.84,83.89l4.59,1.94,9,3.59a40,40,0,0,0,1.34,12.81l-13.18,7.45,6.32,12.5,14.27-5.39a40.08,40.08,0,0,0,12.36,10.32L90,140.78l13.44,3.92,5.2-12.89a40.23,40.23,0,0,0,16-2.05l8.57,12,12-7.26-6.47-13.07C145.41,116.15,147.79,107.93,147.79,107.93Zm-43.94,10.64a28,28,0,1,1,34.74-19A28,28,0,0,1,103.85,118.57Z"/></g></g></g></svg>