<svg xmlns="http://www.w3.org/2000/svg" xmlns:xlink="http://www.w3.org/1999/xlink" viewBox="0 0 187.4 207.85"><defs><style>.cls-1,.cls-2{opacity:0.1;}.cls-1{fill:url(#New_Gradient_Swatch_1);}.cls-2{fill:url(#New_Gradient_Swatch_1-2);}.cls-3,.cls-4,.cls-5,.cls-6{fill:none;stroke:#176df1;stroke-miterlimit:10;stroke-width:4px;}.cls-3{opacity:0.5;}.cls-5{opacity:0.2;}.cls-6{stroke-dasharray:6.12 6.12;}</style><radialGradient id="New_Gradient_Swatch_1" cx="92.57" cy="156.59" r="72.02" gradientUnits="userSpaceOnUse"><stop offset="0" stop-color="#cce0f4"/><stop offset="0.06" stop-color="#c3dcf2"/><stop offset="0.17" stop-color="#a9d2ee"/><stop offset="0.31" stop-color="#80c2e7"/><stop offset="0.46" stop-color="#47acde"/><stop offset="0.57" stop-color="#1e9cd7"/><stop offset="0.87" stop-color="#0075be"/><stop offset="0.99" stop-color="#005b97"/></radialGradient><radialGradient id="New_Gradient_Swatch_1-2" cx="92.57" cy="53.67" r="72.02" xlink:href="#New_Gradient_Swatch_1"/></defs><title>walkthroughs</title><g id="Layer_2" data-name="Layer 2"><g id="Layer_1-2" data-name="Layer 1"><polyline class="cls-1" points="2.09 156.59 92.27 109.81 183.05 156.59 183.05 156.59 92.87 203.37 2.09 156.59"/><polyline class="cls-2" points="2.09 53.67 92.27 6.89 183.05 53.67 183.05 53.67 92.87 100.45 2.09 53.67"/><polyline class="cls-3" points="2.09 107.47 92.27 60.69 183.05 107.47 183.05 107.47 92.87 154.25 2.09 107.47"/><polyline class="cls-4" points="0.92 139.04 0.92 139.05 91.7 185.83 181.88 139.05 181.88 139.05"/><polyline class="cls-5" points="181.88 139.05 91.1 92.27 0.92 139.04"/><polyline class="cls-4" points="0.92 68.87 0.92 68.88 91.7 115.66 181.88 68.88 181.88 68.88"/><polyline class="cls-5" points="181.88 70.04 91.1 23.26 0.92 70.04"/><line class="cls-4" x1="91.98" x2="91.98" y2="3"/><line class="cls-6" x1="91.98" y1="9.12" x2="91.98" y2="201.8"/><line class="cls-4" x1="91.98" y1="204.85" x2="91.98" y2="207.85"/></g></g></svg>